<mxfile host="65bd71144e">
    <diagram id="HIP3nbAZw_EuaXWnEj3U" name="Page-1">
        <mxGraphModel dx="606" dy="563" grid="1" gridSize="10" guides="1" tooltips="1" connect="1" arrows="1" fold="1" page="1" pageScale="1" pageWidth="850" pageHeight="1100" math="0" shadow="0">
            <root>
                <mxCell id="0"/>
                <mxCell id="1" parent="0"/>
                <mxCell id="7" value="http://ics2o.mths.ca" style="swimlane;whiteSpace=wrap;html=1;" parent="1" vertex="1">
                    <mxGeometry x="50" y="50" width="760" height="480" as="geometry"/>
                </mxCell>
                <mxCell id="8" value="Temperature" style="whiteSpace=wrap;html=1;" parent="7" vertex="1">
                    <mxGeometry y="20" width="760" height="40" as="geometry"/>
                </mxCell>
                <mxCell id="9" value="&lt;font color=&quot;#000000&quot;&gt;From Fahrenheit to Celsius :&amp;nbsp;&lt;/font&gt;" style="text;html=1;align=center;verticalAlign=middle;resizable=0;points=[];autosize=1;strokeColor=none;fillColor=none;" parent="7" vertex="1">
                    <mxGeometry x="15" y="160" width="180" height="30" as="geometry"/>
                </mxCell>
                <mxCell id="10" value="&lt;font color=&quot;#000000&quot; style=&quot;font-size: 20px;&quot;&gt;Find the Temperature&lt;/font&gt;" style="text;html=1;align=center;verticalAlign=middle;resizable=0;points=[];autosize=1;strokeColor=none;fillColor=none;" vertex="1" parent="7">
                    <mxGeometry y="80" width="210" height="40" as="geometry"/>
                </mxCell>
                <mxCell id="11" value="&lt;font color=&quot;#000000&quot;&gt;32&lt;/font&gt;" style="whiteSpace=wrap;html=1;fontSize=17;" vertex="1" parent="7">
                    <mxGeometry x="40" y="220" width="170" height="20" as="geometry"/>
                </mxCell>
                <mxCell id="13" value="&lt;font color=&quot;#000000&quot;&gt;Get resolute&lt;/font&gt;" style="whiteSpace=wrap;html=1;fontSize=16;direction=south;" vertex="1" parent="7">
                    <mxGeometry x="17.5" y="310" width="155" height="25" as="geometry"/>
                </mxCell>
                <mxCell id="17" value="" style="shape=image;verticalLabelPosition=bottom;labelBackgroundColor=default;verticalAlign=top;aspect=fixed;imageAspect=0;image=data:image/jpeg,/9j/4AAQSkZJRgABAQAAAQABAAD/2wCEAAoHCBUWFRgVFRIYGRgYGBgYGBgYGBEYGBISGBgaGRgYGBgcIS4lHB4rHxgYJjgmKy8xNTU1GiQ7QDszPy40NTEBDAwMEA8QHxISHzYrJCs0NDQ0NDQ0NDQ0NDQ0NDQ0NDQ0NDQ0NDQ0NDQ0NDQ0NDQ0NDQ0NDQ0NDQ0NDQ0NDQ0NP/AABEIALcBFAMBIgACEQEDEQH/xAAbAAACAgMBAAAAAAAAAAAAAAAEBQIDAAEGB//EAD8QAAIBAgQDBwEGBAUCBwAAAAECAAMRBBIhMQVBUQYTIjJhcYGRI0JSYqGxFMHR8HKisuHxksIHFSQzY4Li/8QAGwEAAwADAQEAAAAAAAAAAAAAAgMEAAEFBgf/xAAqEQADAAICAgEEAQMFAAAAAAAAAQIDESExBBJBIjJRcZGBofATIzOxwf/aAAwDAQACEQMRAD8A4RVliiRUS5BOS2enlGKskVmwssCQGxiQPlkgkvFOTCTTo2oKFSXqkkqSxVgVQSkgqSg04blmmpzSsL12ChJPJLxTljUt/aadBqReyStkhppyL09YaoXUgJSH4DE1KYIV7BtxoQfg7H1lYpy+nTmVS1pi/TRbhsKXa3Xrew+k6bs/T7l8r65rkWtoBpcxTh62Qgrof0nUcIx1NiCVysTYWA1A6n+9pJV06S+AMiSl8HSU6trAjebxddUFydP294BjfFZgxGXX3HpBMRiCyPpurEb32lP+rrj+CBYvbT/kZVsbSys+dbJ5iCDlPQ22M47tT2lpZAtJizHcjZRb1Gs5TElgdSddTvrvYxbXa8vxYlT2xdfRwhlxjjlTEhEOgX1sGPK/xAk4M7oGQhiSQVG4tz9oLTQk2AvedrwfHBAqFLtbKMouQTqwtz+JW6eOUpFylb+oX4Ts/wB4EVR4zcdB4d2a/TSeiYPALTpJTVQMq2Nha55k/MD7OUw2Z7HQsi3FrC/iseeo39I6dD9OZsAPcmL96rhm60nwLq9OwiPG3Ef1a6bFy3+Bb/qxEo4nwm9MVqbZkPmBFivqeovv0j8daFO56OYRzfWMBXAEDrUSIOUYzoQ9i6QW1bMZF6UiiZRK3qkyyH+BFI13YPKLOK4VbaqI9w1oNj6AIleO9UJpHEPTUG1h9JkcVMGt9puW+yEeonCyawiml5p6JvPmfsuj2ql62aQS+msgiS5d4FMZHDGGHwoMm+BHKWYR7iHoshu6llLYiagQbSS040xNMSlaUJZdoBJAwpzfdQtaUtXDwXk0EkgFaMsajv7Q5KEuNHf4gPLyFtISijrfpKHpR02H09/2gr0oycuzTSYr7u0toJrLmSRRbmMdbQqpCHqjLYCxlCVyNeY2MsyytwBBWuhNpjCnx9wLMbi22wMEpcaqLmsx8Q56+28X1L84NVMoxRO+Sa20Qx2JLuWbcm5gbGWuJpKf+w6mdXHpIgvbYThcLbK2cC9yBrew69J2HCOEupDZMgO7vmRiD+BfN82F51HZvsglCkHNmrHdyLin1FMcvfc+mwZnCIgLFWc6nqdBfbaDdU3wKWSVvQFhQ1gKSE20ztoPe3/MJbAKBnxFW4AJteygAFjbroCdOkmnEkcOqNd0UFlGuU6+G+xtYjSC8exrp3To32bWLLpZtmAJ3IK30vymSvyKu2+RsuCpFLCmoBHNbGxHO+t/eKMFX/h6ppNqj7X1Gumv7H4jLvajjwMiLZTnOV25lgU8o0y6357RXjqVNwUSozuPFmJz5WAtYkaKDlOwAv6kXokSn8Mp4zwkI118jeX8p/Cf72ij+FtynS8GxYqIaNTcC3rYc/cGJuI5qLFW5agjZlOzD0leOn0HNN8MVPhiTrKq9EAaRi2IGUk7W/Sc5V4xQzkGpYje9wPrtOhh9mLvSLHfLB6/GEAs28T8bxIN8jkXGlj5hOYrEiwuT7zqY8aa2yaq50jp6nFKV/N+81OZGKA0yCZKfp/Ivk6Kg8sd4Mqyc+YOeT2qt60GJrymZDNYd4aljyiafqxq0yqgxBh6YkyKUgYdSwgO4+kmyXPyEDCoTvCaafSFrwokXUg+nOZTw7KbFSImqWuDFc9JlaUYQlGE0qOu3xDaOFiV7U9IXeZIXDDy9sPpt0jing/SXHB6bR68W32SV5S2czVw/pAa9KdPicNaKa2H9IqprHWmVYc6o5+pSlaU42rUgPWUZfSOWTaKdpoXtvK6iwmov9iB1njZ5EWgd7QOpqYQ0pYSqOGSWilkluBS9Wmv4nQfVwJBoXwJM2JoD/5UP0YH+UvmvpZFaPeaH/t/X94ras5YqtM2BUF2ICkHzZADc2F9etvcNaPkHt/Oc/xFqYcmrWNrArSBUeW4JyjxNcuNdtF2teNrpfpHPXb/AGKsD4Mc6nTOp6asVD33PQ8+cNzLWw9SkPPQcpy3UB1t7owX6wDjRyYinUsQNDqEXQNdtthZueu8vwTd1j3X7tamGHTPTOvyVc/9E1vTTGxCqWvlchHBWWrTCPc92wt4gALg5QLWJuCw9tNQYXSxrN4KWHYIrFSzhUSwYA5F3Omc3tuo0swMU0PscSVuACSASL5VbxKRr+vv1jnGYitdBSpghgSzucopm6gXQkMTYs233CNLgxyYhoV8Vomm4qJprr6NyPzt9JdxnB/x2GtTfJWW5ptewD80b8rbemh5Whf8K5RlquHLHTRfCuUDLcAZtQxvYea3K5TYLENQqFW25+o5N/f85Tjb7XaBfJ5TxPj1cXo1FKMhKOPKwYaEMOotEDuTck7/AKz1/wD8SeywxCHGYdb1kUGoq716KjzDq6j5Ki3ICeU4bh71PIv10Fhv/Kdvxsk3PHH5J79m+QZGNxY+2ssxVUk2O43I5mMV4V4iDpbfW6rtoDzPOLsSi5zlN7fE6EvjgDWgbLNSZtMmaRs6VTLQJUhlytPm1HsJZOm0MptA0hVMxNDZDqLxhQxJEW0zCEIktymNSTGtLFG9+fppGdHG33F/eIqRh1Aydtz0LyY5Z0OHCN/Q8vYxrhsGp2N/Q7/7zn8IJ0WAvpOl4tTevaTkeSnPTDqWEAlhw4tL1m53Jwwl0cl5K2JsVhOcS4vD78p1eJOk57Ga3nJ8zDK2jo+LlpnNYhAIBVMbYxT0/SLKonFS9XpnexVtC2teBOsPrrA3Eshm7QKyiUVBDCsHqLKJZJaBWjXsol8ZR/xk/RWMXER52MW+LT0Dn/KR/OVzX0sjyI9mpeQe0Q4zFIlSy0y9QqPLYlaZYC51uF0v4Qb5diRH1PyD2iTiOLdDlSmXZlcrbyhwvgDkeUE6XNh6yq+l+jlx2/2JO0Kkojsqo+mdRclGZdczjRrZbDTl6Qbi1aww2J/Ay5v8J+ze/sC30jLiiuaB7w+O7EKqeHKH8GfzWITLfxAXvFyUxVwjodcuYeuUi4/7oD6KMLSyc9DDtFR8jj/Af9QP6GMOHYrOgJLM1rsLAAEaFQQABrsCb6xdw+qcRgxfz5LH0qJoR9V/WVcBrtmKBgAfHqCSRbYa6bdDtHS9oTklzTTCqVPFPY1GSnZr2Q3uodXFxqDdLoQTa4LC1wBHjOFzDMo1H6jmJfxTiLUygWnnzsBoXzZcwzlVRWJypma5sNFAuWEpwCYg378jVFuBksKt2zlMuvdkZbB/EOcfFaexTIcD4hayE+qn+RiHtZwxaBfEKLUqlgw5UKh+76Kx1HQ3H4RDMdRKPcbMdPR/9/3tHOErrWpslRQyspWop2ZTof8AmXRXq/ddfID4PBcZxB2LC/hJOkXFp0PbPs4+Br5LlqT3ai5+8l9Vb8y3APwec50zt48iqVU9E73vk3eZIzIfsYdOsvpiULLUM+dUeulhagS5LQRGl6GKpDkwymwhKP6QNDL0aT0hssY0GPpGFBvWKqLw2m8kyIyuR5hqgjvB4i3pOWw9W0Z0K8d42f0ejn+Rh9jr8PXvLi4nPU8XYbyx8ZtrO3PmJScmvFbY3qVlOhMRcRWxN5Gvied4HVx9xYi4/Ue0k8jyopaf8lGHBUvaF+IqHkYvrVztp8iFYocwbjr094rqvOQttvZ2sUrRTXb0+kEYrzEuqW9oM15RCGUT7pTsw+ZRWw46j6yLmDOY+Zf5JrZCpRIj7sIn/qSelNv1KznzedT2BT7Vz0QD6t/tKk/pI8p6tT8g9oo4hici5spbxItgGNs7BcxygnKL3OmwjdPIPaKMfi0pK9So4REBZmOwUC521PsJdk6n9HJx9sEq1GegC9qRZPGCR4Sy+XM1ranmL+xiTgD+J0P3kvb1U2t/mO0cNxQGqaapmZWZb5lGWoqI5uNwuV18XU2tqLocMSmJAtbxkWBJGt1YA2FwLg7QF0N6aYV2XfJUr0D91s6j8rb/AOZT9ZVjqWSsfCCua6g2s6t4mpm+nW15DFN3WOpvstS9M+rNquvuv6xh2hogqr9PC1wSpXcZwNQAb+IbE32vDxV8DfJnbVflDXDVgy3VSF0y3GW4tyU6ge4ErxWMppbPUVL/AIiBpcC+uwuQL7aiAcFxLsoTSyaksSXKtfLlsMrj84PLa8t4hwtKpJZnXMjUnClLVKL+ZHDKdN9RYi5sdZTLJGjfEMMHUgiI8NXZH13Bs35hyb5/edKyACw2AsPaI+K4axzqNRuPxLzEsw18MXSDeL8NpY3DtQqGwbxI9rmjVA8LD01sRzBM8G4tw2ph6r0Ky5XQ2PMEbhlPNSLEHoZ7XwvF5TlJ8J2MG7b9mhjaOZFH8TSX7M6Dvqe5pE9dyt+Zt94y3DbxVp9P/NiWtniEySemQSCCCDYg6EEdRMnSAOmWXJKVlqmfPmeuTLllqmUrLliqDTL0aXIYOglyxNDEwyk8LR4vpawtUNrye0hi5D6dSHUa1vn9onpPCkqxFS0+AKnY4GJ2knxPrFIrazHqzFd9Cv8ARQybE/0gVarrKBV5SqrUuIOqp8jJhSTOII2+R1lLKH8u/T+kGepMw9TxCOUaWxnXRY2DYjQQOpSKmxnVo4YesC4lhgy+o2gRn+rT6FK23pnM1IIyw2oDtKe6vsdehl0PgC0DMJ1v/h+utU+iD/VOTdSDYidr2CTw1D1cD6Af1jd8EeVaTPSF8vxEnEMEtVWV8xV1ZGAZgrI2jAgHmNL725x4PJ8Tn+MV3RGyK5NjqiK7La2gViAWOw3AJuRYGdLJ1P6OTj7ZYtBVBCDKSLZt20GhJOrEet5ynGaJSqRmY3Cvc5cxIHnUAAFhbVQNrQmjwivUytXa+qEBwpqUDTxDVh3bLocylELGxtTUka5RTx6nSVgEKC184B8rXGV3Zbsj6mznQ2seUGeGMfRnapc9FaqHUZXUrztZxb3sB8x2jitQBH30DLYlSGtcWYajX+zF1IZ8NY3uuZfEoU3GouASDoRqDY7+gq7GV/sTTO9J2Tqcl8yH6Gal6opa98P6f9mDcPrsjgKwXOcoLBcjEncIrBHbTdGU9UnUoCAATc21NgLnrYbTluLUclZ1G7gvYZSzjS91UFnAN/NTq201G0ccPqvUQs1Ua3SyBAabDQlmzNd+fLfVQZXLImDY7tAqh8lN3YCsKdl8NWtQR2emp1a/gYXy2uLAk6SnCcQNRyhKODSWslSnfKyOSuVlJOUjSxv4hfQWMLbgyGqKrVKrFUVEXvHAVVOY2K2Y5iAWuxDZVBFgIYKSrfKoFzc2AFz1NtzKYYqjmsRSKPbkTdfRunz+/vG/DcXmAF/EJDiGGDqR/YMT0axU3+8ps38j8/1nRj6518ia4ZfxrsFhcXVauar0Xa2daeTK7jd9eZFr23IvuTMjmhiAVBvMg+tr5YJ5GglglayYnkmerTLUlyyhDL6cXQaLllolayYMSw0XUnsYZ345RfJoYupTDmgsPyli1IGrSWaC5C2HJUmGrAg8wvB9DYV3s0zwXNNF5v0M2SqNK88i7SovGKQWxrh+KMuhF/0lzcUB3v7RGXmhUgvBLe9AbSC8Q2YlhzglSa72aapeNUtA09mu9Ox1HrO57EIBSYjm5/YCcGi3Os9B7Hragvqzf6iIfyiTN9rO7Hl+IrqRn934iTHs9rIma+h8eQqvMqQCc3TbXmN50svU/o5GPtlWMxa0xmcnU2AVXd3axOVUQFmNgTYA6AnlEnGMZRemrU6iE+GouQvmCOD4/ArFQbjVlKnW/UUcP4E4Y1VtQPeLURHWk5Vu7elUDimwVgVYWOYtdcxJvlh+NwyUcJ3ecKqIArOyqWdbEEnMgzEjky6nS0BaQ170CdnnGV0Gxs62FlYG4JXKWQjy+RueqqdwuEv3WNdNhVS49XT/APJEzg1TJiACbM4cEHRntazXfIzjQeLI+/ntvV2l+yq064+46k+qk5WHzcfSFXD2U+LzuPyv7jvtJQzIG3t4SCfCc211YOpNwALo58Wg1MX8LxlQMaSBS7WYLUd0KLbU5GZn5bFKa9Be86CqgdCt/MpAOttRodCLj0uLzjsK7IbopIRicqWKCxs6tkNLDI4Nx4nqMLGUwyG1pnaAm2u/O21+dpVUroGVS6hnvkUkBnyi7ZRubDU2g2G4pTqEikxey5syKxQ/lWrbIzegac/xvh+LrutVKdNHporUS9TM6VVcsy2UZSHUIh8VgL7yiGKoYtxumWAyuEZ2pJVKr3b1VYoUBvmBzKQCwAJGhMG4lRynOB6MOq8/nnIv2fdkKGtlp1HWpVTICVq5ld+6fN4AzrcizWJNiLxtiUuJbhppiqQkSsQNNQdQeoMyVOKlMlVFxe4vyvyHpNzoe8iNM4YSxZWssnh2euRIGXI0oWWrBpG0EK0tUwdJasVSGJhuGw7OcqKWPQestrYF1NmRgfUchubzouxlVFVsxAZm252Uc/rOsakjC2UbEbA6Hf4mTj9lw+SbJ5Li9OeDyoi0uw9BnbKilm6DU2E6DF9nKgqEinmTNfQixXmNDpOk4ZhqarakoXqba35gk6wZxtvT4DyeVKnc8/58nnFakynKylT0YEEfBkGuNxPWWS4syqR6gGJO0XD1enfKBlF7gAEDdgLewh3i9VvYGPzfalLWv6nnxeYGkKgsSJWWi1OyxsmzytmkWaRYw0gWzC01eRmXhaB2YTCaBAGovBbyavMa2jWwrN6Cegdl1tQT11+pvPOg89K7PC1GkPyr+witaaJ/I+064eT4iqrGg8vxFWIYC5JsBuToAPUzp5ftk5GLtlZlFTDoxDFFzAFQ9hmVW3CtuBoNjynJ8Q7SO1evRw9RWP8AD1xSWmA7jFUsvjYqDluWdVDWF0G+YQrhOGWo9XuXqpQZKBuGqIXr2qd4AzjMDlNLMykHMN7hoKlpbY3230KqJNJlJ8C5z5vs0dw1xYMKYdjY6rSqt0bmXPafDZ6TDqCL9Li1/wBbxTjKGStUWne+gYqajOLAFe9allY+EjWrXUH8NjHdJlq4ZSCCCmU2NNhmXwkXRmW4IOgY26xl8rYWGvW9mdlsb3mHQncLlN97rpY+tgPrF/HcKe9LZWYWDhigfuidMy1MQ/cUbWbRVLc7a609kq2SrWon8QqL/wDbz/5jb4jftBg86qwXM6Hw5aVKrUGYW+z7whVa+U5muAAfeMxVwF5cayNrp8muAY3OhGYPlPmV3qqytcj7YoqudDcJcKLDpGhnH4XFN3uVaoFRsqNnerjayg2vmo0bUaGoBvquk6nDUWRArVGdtbu4QMbm+yKAAPaVyyJk2lbCWGRaVQxVIBqUdZkJImSj2F6PJFEsm8s2Fnk2z1GjaiXU1lSiF4ZecXb0gpOi4Z2bd6d9FJNxckG3sOsb4bsemX7Rzm/KRYW2tcG/zLeDYhWpKBuosddbxph3bNqdImalvn/sRkvIt6ejhcVh2oVmUGxVtD1G4P0nacDxjVkDGykaG9zr1EzH8JpVWDkkHY2sM3IXMFYDC+AKxB1zXGvSbe4fs+jVWssqV9w/pM48xBHUHT6TbVdwBYxbg8YCRrYkaKdYkxYxQquy5l0vyIsOl/mMedeq0InBumnpHUrccz9ZzPazHuCFGZbg+IeVgbc+o2l1Ljtsqvrf7wt+sC7TVHZQRlNMkAEeZTzv83i3lVrSHYsTm06RydQyljLKsoZoUotbMJkbzLyJMLQOzZM0xmryBMJI02SvJSq8kDNtAtk81p6xwdbJTHRV/aeSqLkDrp9Z69gB5R6CKv7pJ87+k6QeU+0S46grjK6Ky3BysqsMym6mx0uCAfiOR5T7RVW3l+V/SjmYu2CDDIGDBFDKGCkKoKhyCwB5XKrfrYTddyFLBS5AJCrlzOQNFBYgXPqQJYZExCY9o4/jS1GfNUw42DBSGxARQbBr1WTD0WvrqXOl9YfwDFd5TYZw+VtGDrUGUjTxqiJfQ+FLgddZvtPgy/dstMuylrBaVCo6k2IZWrMEp2sfEysdrW5x4RhKyMzVNmUDxVqtaoSD4SdFpoLZrqq8xrpKVScgJP2Etd+5xtN+TE029n1W/wA5z8TsK9NXVlZVZWUqVYZlIPJhzHpOP7YJ4c+xWzA/mUg6fGYfMYYLtRQZVvUAYgXHRraj6zIrTLMsO8aa7XDAKqOqFWD92unjenw7CLl0IVU+1Zfe4PWdPwvFrVpq6uj6WLJnyFhvkLalfWC4fBYd37/u0d21DP4yugHgz3y+y2ja8smtnMqWiBkTJtINK4YmiuZNzJRsA8sVZJUPSXtT10GnKWrTtvPIOj1PqDBIwwOEVtC+X13H0kkpZha467awnhzpfKyAnrzirt64NqdGjhatIgq+ZSQQVPPlcToeH0qpBOe2xJsCG02iirg2ILI4y8lZtRpqPWL6PEHW6qzAHQi5ite/JlLa0jtF4gCcpOUrpr6SziOaogyqrbi53W/MGcZSNSu4VdT72+pMYYfidWj4TrluCpvpr6QltLVfIp4ltOe0GnCVqYDEWte+pOW/O1rQv/zQkFRzW2b8N+s3g+NU6pynwmxuGtlb03gXFuHsLtTy5TuosLe0Fw55lmJ+z1a5JY2qlRMqrcKNxa1v6znWxTWK3JXoSdPiSXFOmZbkX3HQwBzCmeeRqXqtIjWMHMsZpqULg02VyJkmkDCRrZqRM2TImGCamwZhEwCbML8Gt3QdWUfVhPXcFus8p4Sl61MfnU/Q3/lPV8F5hJ7f+4kT5/tH48p9orrbxmPKfaK628vzfajnYu2UmRM2ZEyZMoNMYJiagUEmFMYg7QVyEa2+Vrf9JhutIKJ29HnHaTirVqrAHwKSAPxEHU+3QSHD6NN0sfNck9R094rrbn3lQMp9NzpPR14axPWto6bgnGmoVMhbMl7Xve3tPT8FiA6huv7854Wh1E9Z7J1y1LX8v7Zf+2Ox8cHM86Zb9ktbOiaQaSvItLYZyaRCZMmSnYvRwtIrzE2VU9f76Q2twsFvs2uNARvY+/KFVFQKUCrmA0NhfS1xPEO18Hq9imldSRb539YRTwBcErcta4AG/wDZgyYplJve/wDOGcNxxVxY2BOvoIT2uTH1wbp4WqosyNvbKPNfrbpJPw0U9WUhr3AJ3FudvWddSxaPsQSOYtA+McPFRQc1mUG2uhv1meu02mIWZ+yVLQLwulSsWWysQM1h06j+kX9qKoNrKLr97mwPL2iSniGBNmI5bzVSvcWJ+ec2lS0M9F7e2wZqphNLijhQuY2Gw6Sm4lVUC2kbpPho2Terck31POVKZBTJq8LWjRFjKyZcxBlTLCRpkDNTZkTCQJEzJhmQjCU3ISUwwY8AS+Ip+5P0Uz1HB+YTzTswt8QvoGP6W/nPS8F5pLb/AN5f0/8ARGf7R8PKfaK6+8Zjyn2iyvvOhm+1HNxdsoMgZIyLSVMpK6hnO8b1U/3ccxH9QxRxCncGattobj4Z5NjqGViv09V5GAkTteLcLzctfp9DyiJuENe3i/6VP6hv6SvDnmp57L3Sa2LsLQLMABuRPV+y1HLSv+I6f4QALj0JBPzOV4LwQ3F1Kjne2Zuo00UfJPtO+wyBVAA/4lGOtvZz/KtP6UEzRmTRl0M5tEZkyZH7E6PP6WLZdVYib/iWvfMb9ZkyeTco9TsrLX1lbPrMmTaRpheDxxU6E/rGTcXc212P6c5qZF3K2bXPYq4hYOSNjr7E7wQtMmRsdI1XZrNJX0mTITBRtElmSZMgNhowU5PKJqZMYRFqY6QSqljMmQob2DSWiozUyZGijJu03MmGIe9kVvX9lP8AqWei4HzTJklf/P8AwT5+h8PKfaK6+8yZOjm+1HOxdsGMi0yZJCpFLwOut5qZMDkWV8KDKEwQm5kOEthU3oYYbDgRiizUydDGSWSmjMmSyCaiMyZMlAs//9k=;" vertex="1" parent="7">
                    <mxGeometry x="400" y="120" width="276" height="183" as="geometry"/>
                </mxCell>
                <mxCell id="18" value="&lt;font color=&quot;#000000&quot;&gt;&lt;span style=&quot;font-size: 12px;&quot;&gt;The temperature is 0&amp;nbsp;&lt;/span&gt;&lt;span style=&quot;font-family: arial, sans-serif; font-size: 14px; text-align: left;&quot;&gt;°C&lt;/span&gt;&lt;/font&gt;" style="text;html=1;align=center;verticalAlign=middle;resizable=0;points=[];autosize=1;strokeColor=none;fillColor=none;fontSize=20;fontColor=#FFFFFF;" vertex="1" parent="7">
                    <mxGeometry x="22.5" y="350" width="150" height="40" as="geometry"/>
                </mxCell>
            </root>
        </mxGraphModel>
    </diagram>
</mxfile>